<?xml version="1.0" encoding="iso-8859-1"?><!-- Generator: Adobe Illustrator 22.1.0, SVG Export Plug-In . SVG Version: 6.00 Build 0)  --><svg xmlns="http://www.w3.org/2000/svg" xmlns:xlink="http://www.w3.org/1999/xlink" viewBox="0 0 48 48" width="50px" height="50px"><path style="fill:#A64A7B;" d="M43,11H5c-2.209,0-4,1.791-4,4v16c0,2.209,1.791,4,4,4h19l8,4l-2-4h13c2.209,0,4-1.791,4-4V15  C47,12.791,45.209,11,43,11z"/><path style="fill:#FFFFFF;" d="M40.443,19c0.041,0,0.132,0.005,0.277,0.038c0.342,0.077,0.559,0.198,0.82,0.686  C41.85,20.283,42,21.007,42,21.939c0,1.398-0.317,2.639-0.973,3.802C40.321,27,39.805,27,39.557,27  c-0.041,0-0.132-0.005-0.277-0.038c-0.342-0.077-0.559-0.198-0.809-0.666C38.158,25.722,38,24.963,38,24.043  c0-1.399,0.314-2.63,0.963-3.765C39.691,19,40.218,19,40.443,19 M40.443,16c-1.67,0-3.026,0.931-4.087,2.793  C35.452,20.375,35,22.125,35,24.043c0,1.434,0.278,2.662,0.835,3.686c0.626,1.173,1.548,1.88,2.783,2.16  C38.948,29.963,39.261,30,39.557,30c1.687,0,3.043-0.931,4.087-2.793C44.548,25.606,45,23.856,45,21.939  c0-1.452-0.278-2.662-0.835-3.668c-0.626-1.173-1.548-1.88-2.783-2.16C41.052,16.037,40.739,16,40.443,16L40.443,16z"/><path style="fill:#FFFFFF;" d="M28.443,19c0.041,0,0.132,0.005,0.268,0.036c0.333,0.076,0.571,0.207,0.829,0.689  C29.85,20.283,30,21.007,30,21.939c0,1.398-0.317,2.639-0.973,3.802C28.321,27,27.805,27,27.557,27  c-0.041,0-0.132-0.005-0.277-0.038c-0.342-0.077-0.559-0.198-0.809-0.666C26.158,25.722,26,24.963,26,24.043  c0-1.399,0.314-2.63,0.963-3.765C27.691,19,28.218,19,28.443,19 M28.443,16c-1.67,0-3.026,0.931-4.087,2.793  C23.452,20.375,23,22.125,23,24.043c0,1.434,0.278,2.662,0.835,3.686c0.626,1.173,1.548,1.88,2.783,2.16  C26.948,29.963,27.261,30,27.557,30c1.687,0,3.043-0.931,4.087-2.793C32.548,25.606,33,23.856,33,21.939  c0-1.452-0.278-2.662-0.835-3.668c-0.626-1.173-1.565-1.88-2.783-2.16C29.052,16.037,28.739,16,28.443,16L28.443,16z"/><path style="fill:#FFFFFF;" d="M18.5,32c-0.421,0-0.832-0.178-1.123-0.505c-2.196-2.479-3.545-5.735-4.34-8.343  c-1.144,2.42-2.688,5.515-4.251,8.119c-0.309,0.515-0.894,0.792-1.491,0.715c-0.596-0.083-1.085-0.513-1.242-1.093  c-2.212-8.127-3.007-13.95-3.039-14.194c-0.11-0.82,0.466-1.575,1.286-1.686c0.831-0.108,1.576,0.465,1.687,1.286  c0.007,0.049,0.571,4.177,2.033,10.199c2.218-4.208,4.078-8.535,4.102-8.59c0.267-0.62,0.919-0.989,1.58-0.895  c0.668,0.09,1.194,0.615,1.285,1.283c0.007,0.052,0.542,3.825,2.245,7.451c0.719-7.166,2.873-10.839,2.982-11.021  c0.427-0.711,1.35-0.941,2.058-0.515c0.711,0.426,0.941,1.348,0.515,2.058C22.762,16.313,20,21.115,20,30.5  c0,0.623-0.386,1.182-0.968,1.402C18.858,31.968,18.679,32,18.5,32z"/></svg>